<svg width="20" height="20" viewBox="0 0 20 20" fill="none" xmlns="http://www.w3.org/2000/svg">
<g clip-path="url(#clip0_52_2413)">
<path fill-rule="evenodd" clip-rule="evenodd" d="M8.11713 6.26555C8.89505 5.86191 9.78044 5.71383 10.6474 5.84238C11.5317 5.97351 12.3503 6.38558 12.9825 7.0177C13.6146 7.64983 14.0266 8.46851 14.1578 9.3528C14.2863 10.2197 14.1383 11.1051 13.7346 11.883C13.331 12.6609 12.6923 13.2918 11.9095 13.6858C11.1266 14.0798 10.2395 14.217 9.37422 14.0777C8.50895 13.9385 7.70961 13.53 7.0899 12.9103C6.47019 12.2906 6.06166 11.4912 5.92243 10.6259C5.78319 9.76067 5.92034 8.87352 6.31437 8.09069C6.70839 7.30786 7.33922 6.6692 8.11713 6.26555ZM10.4029 7.49102C9.88273 7.41389 9.3515 7.50274 8.88475 7.74493C8.418 7.98711 8.0395 8.37031 7.80309 8.84001C7.56668 9.30971 7.48439 9.842 7.56793 10.3612C7.65147 10.8803 7.89658 11.3599 8.26841 11.7318C8.64024 12.1036 9.11984 12.3487 9.639 12.4322C10.1582 12.5158 10.6905 12.4335 11.1602 12.1971C11.6299 11.9607 12.013 11.5822 12.2552 11.1154C12.4974 10.6487 12.5863 10.1174 12.5091 9.59727C12.4305 9.0667 12.1832 8.57549 11.8039 8.19622C11.4247 7.81694 10.9335 7.5697 10.4029 7.49102Z" fill="#12F7D6"/>
<path d="M14.5835 4.58337C14.1233 4.58337 13.7502 4.95647 13.7502 5.41671C13.7502 5.87694 14.1233 6.25004 14.5835 6.25004H14.5918C15.0521 6.25004 15.4252 5.87694 15.4252 5.41671C15.4252 4.95647 15.0521 4.58337 14.5918 4.58337H14.5835Z" fill="#12F7D6"/>
<path fill-rule="evenodd" clip-rule="evenodd" d="M0.833496 5.83337C0.833496 3.07195 3.07207 0.833374 5.8335 0.833374H14.1668C16.9283 0.833374 19.1668 3.07195 19.1668 5.83337V14.1667C19.1668 16.9281 16.9283 19.1667 14.1668 19.1667H5.8335C3.07207 19.1667 0.833496 16.9281 0.833496 14.1667V5.83337ZM5.8335 2.50004C3.99255 2.50004 2.50016 3.99242 2.50016 5.83337V14.1667C2.50016 16.0077 3.99255 17.5 5.8335 17.5H14.1668C16.0078 17.5 17.5002 16.0077 17.5002 14.1667V5.83337C17.5002 3.99242 16.0078 2.50004 14.1668 2.50004H5.8335Z" fill="#12F7D6"/>
</g>
<defs>
<clipPath id="clip0_52_2413">
<rect width="20" height="20" fill="white"/>
</clipPath>
</defs>
</svg>
